<?xml version="1.0" encoding="utf-8"?>
<!-- Generator: Adobe Illustrator 19.0.0, SVG Export Plug-In . SVG Version: 6.00 Build 0)  -->
<svg version="1.1" xmlns="http://www.w3.org/2000/svg" xmlns:xlink="http://www.w3.org/1999/xlink" x="0px" y="0px"
	 viewBox="0 0 300 300" style="enable-background:new 0 0 300 300;" xml:space="preserve">
<style type="text/css">
	.st0{fill:#053927;}
	.st1{fill:#E2D4AC;}
	.st2{fill:none;}
	.st3{fill:#C4B581;}
</style>
<g id="head">
	<path id="XMLID_6_" class="st0" d="M122.3,220c-35.4-0.5-55,25.8-58.2,58.5c-10.2,1-16.4,1.6-25.4,2.5c-2.6-11-4.2-24.4-4.7-30.7
		c-1.1-15,1-22.2,6.8-32.7c9.1-16.2,24-21.3,37.1-22.6C98.6,193,117.8,206,122.3,220z"/>
</g>
<g id="eye">
	<path id="XMLID_31_" class="st1" d="M123.2,224.4c-29.5-1.1-50.9,22.2-55.1,53.9C112.7,280.9,132.4,267.2,123.2,224.4z"/>
	<path id="XMLID_30_" class="st2" d="M76,189.5"/>
	<path id="XMLID_27_" class="st2" d="M76,200.1"/>
</g>
<g id="right_x5F_wing">
	<path id="XMLID_19_" class="st3" d="M129.6,208.9c8.7,12.5,11.5,42.7,1,59.5c0,0,108.4-105.1,128.4-130.2
		c15.4-22.2,19.4-87.6-0.7-123.1L129.6,208.9z"/>
	<line id="XMLID_26_" class="st2" x1="133.5" y1="269.8" x2="74.2" y2="240"/>
	<line id="XMLID_25_" class="st2" x1="74.2" y1="241" x2="133.5" y2="211.2"/>
</g>
<g id="left_x5F_wing">
	<path id="XMLID_9_" class="st3" d="M81.3,185.4c-19.1,0.1-33.2,6.6-45.4,23.8c0,0-1.7-112.6,7-131.6C54.2,53,76.1,20.2,116.6,15.1
		L81.3,185.4z"/>
</g>
<g id="Layer_10">
	<path id="XMLID_24_" class="st0" d="M149.2,267.8l47.9-44.6l41.7-28.4c4.6,15,0.8,27.6-6.4,36.7c0,0,13.7,7.8,13,39.3
		c-16.3-17.7-29.7-18.6-29.7-18.6C199.9,267,169,273.2,149.2,267.8z"/>
</g>
</svg>
